<svg width="50" height="50" viewBox="0 0 50 50" fill="none" xmlns="http://www.w3.org/2000/svg">
<rect x="1" y="1" width="48" height="48" rx="24" fill="#FDF7EE"/>
<rect x="1" y="1" width="48" height="48" rx="24" stroke="#F1EADE" stroke-width="2"/>
<path d="M27 21C28.5 21 30 22.5 30 24M26 17C30 17 34 21 34 25M21.5333 29.4667C18.7954 26.7288 17.5273 24.207 17.1373 23.3287C17.0413 23.1124 17 22.8789 17 22.6423L17 20.8284C17 20.298 17.2107 19.7893 17.5858 19.4142L18.5858 18.4142C19.3668 17.6332 20.6332 17.6332 21.4142 18.4142L22.8406 19.8406C23.5148 20.5148 23.6193 21.571 23.0905 22.3642L22.6438 23.0343C22.2457 23.6315 22.1951 24.3983 22.5602 25.0162C22.9412 25.661 23.4706 26.4706 24 27C24.5294 27.5294 25.339 28.0588 25.9838 28.4398C26.6017 28.8049 27.3685 28.7543 27.9657 28.3562L28.6358 27.9095C29.429 27.3807 30.4852 27.4852 31.1594 28.1594L32.5858 29.5858C33.3668 30.3668 33.3668 31.6332 32.5858 32.4142L31.5858 33.4142C31.2107 33.7893 30.702 34 30.1716 34H28.3577C28.1211 34 27.8876 33.9587 27.6713 33.8627C26.793 33.4727 24.2712 32.2046 21.5333 29.4667Z" stroke="#2B2B2B" stroke-linecap="round" stroke-linejoin="round"/>
</svg>
